<svg xmlns="http://www.w3.org/2000/svg" width="24" height="24" viewBox="0 0 24 24">
  <path d="M18.85 2.38a4.506 4.506 0 0 1 .58 5.66c1.4.2 2.49 1.36 2.57 2.79l.01.18v9c0 1.6-1.25 2.9-2.82 2.99l-.18.01h-14c-1.6 0-2.9-1.25-2.99-2.82l-.01-.18v-9c0-1.52 1.13-2.78 2.6-2.97a4.504 4.504 0 0 1 .58-5.65 4.49 4.49 0 0 1 6.36 0c.18.18.33.37.47.6.14-.22.29-.42.47-.6a4.49 4.49 0 0 1 6.36 0zM8.55 10H5c-.51 0-.94.39-.99.88L4 11v9c0 .51.39.94.88.99L5 21h6V10.06H9.86c-.46 0-.9-.02-1.31-.06zM19 10h-3.53c-.41.04-.85.06-1.31.06h-1.17V21h6c.51 0 .94-.39.99-.88l.01-.12v-9c0-.51-.39-.94-.88-.99zM6.59 3.79c-.98.98-.98 2.56 0 3.54.32.32 1.03.57 2.07.67h2.21l.01-.33v-.59c-.03-1.76-.3-2.83-.76-3.28-.98-.98-2.56-.98-3.54 0zm7.31 0c-.45.45-.73 1.52-.76 3.28v.92h2.21c1.04-.11 1.76-.36 2.07-.67.98-.98.98-2.56 0-3.54s-2.56-.98-3.54 0z"/>
</svg>
