<svg xmlns="http://www.w3.org/2000/svg" width="24" height="24" viewBox="0 0 24 24">
  <path d="M16.67 2C20.17 2 23 4.84 23 8.33c0 1-.18 2-.54 3.01-.19.52-.76.79-1.28.6a.998.998 0 0 1-.6-1.28c.28-.79.42-1.57.42-2.33C21 5.94 19.06 4 16.67 4c-1.08 0-2.1.4-2.89 1.1l-.18.17-.89.89c-.36.36-.93.39-1.32.08l-.09-.08-.86-.86a4.326 4.326 0 0 0-3.1-1.31c-2.39 0-4.33 1.94-4.33 4.33 0 3.43 2.88 7.23 8.77 11.3l.23.16.4-.28.46-.33c.45-.32 1.07-.22 1.4.23.32.45.22 1.07-.23 1.4-.47.34-.96.68-1.47 1.02-.34.22-.77.22-1.11 0-6.92-4.61-10.45-9.08-10.45-13.5 0-3.5 2.84-6.33 6.33-6.33 1.63 0 3.17.62 4.32 1.7l.34.34.19-.19a6.343 6.343 0 0 1 4.18-1.85zM18 11c.51 0 .94.39.99.88L19 12v3h3c.55 0 1 .45 1 1 0 .51-.39.94-.88.99L22 17h-3v3c0 .55-.45 1-1 1-.51 0-.94-.39-.99-.88L17 20v-3h-3c-.55 0-1-.45-1-1 0-.51.39-.94.88-.99L14 15h3v-3c0-.55.45-1 1-1z"/>
</svg>
