<svg xmlns="http://www.w3.org/2000/svg" width="24" height="24" viewBox="0 0 24 24">
  <path d="M9.88 1.7a2.998 2.998 0 0 1 4.09-.13l.14.13 7 6.97c.52.52.83 1.2.88 1.93l.01.2v9.21c0 1.6-1.25 2.9-2.82 2.99l-.18.01H5c-1.6 0-2.9-1.25-2.99-2.82L2 20.01V10.8c0-.73.27-1.44.75-1.98l.14-.14zm2.83 1.41a.995.995 0 0 0-1.32-.08l-.09.08-7 6.97c-.16.16-.26.36-.29.58l-.01.13V20c0 .51.39.94.88.99L5 21h14c.51 0 .94-.39.99-.88L20 20v-9.21c0-.22-.07-.44-.21-.61l-.09-.1zm-.1 3.1.09.08 4 4c.39.39.39 1.02 0 1.41-.36.36-.93.39-1.32.08l-.09-.08-4-4a.996.996 0 0 1 0-1.41c.36-.36.93-.39 1.32-.08z"/>
</svg>
